<svg width="20" height="20" viewBox="0 0 20 20" fill="none" xmlns="http://www.w3.org/2000/svg">
<path fill-rule="evenodd" clip-rule="evenodd" d="M4.16699 5.00008C4.16699 4.53984 4.54009 4.16675 5.00033 4.16675H15.0003C15.4606 4.16675 15.8337 4.53984 15.8337 5.00008V16.6667C15.8337 17.5872 15.0875 18.3334 14.167 18.3334H5.83366C4.91318 18.3334 4.16699 17.5872 4.16699 16.6667V5.00008ZM5.83366 5.83341V16.6667H14.167V5.83341H5.83366Z" fill="#523424"/>
<path fill-rule="evenodd" clip-rule="evenodd" d="M2.5 4.99999C2.5 4.53975 2.8731 4.16666 3.33333 4.16666H16.6667C17.1269 4.16666 17.5 4.53975 17.5 4.99999C17.5 5.46023 17.1269 5.83332 16.6667 5.83332H3.33333C2.8731 5.83332 2.5 5.46023 2.5 4.99999Z" fill="#523424"/>
<path fill-rule="evenodd" clip-rule="evenodd" d="M5.83301 3.33341C5.83301 2.41294 6.5792 1.66675 7.49967 1.66675H12.4997C13.4201 1.66675 14.1663 2.41294 14.1663 3.33341V5.00008C14.1663 5.46032 13.7932 5.83341 13.333 5.83341H6.66634C6.2061 5.83341 5.83301 5.46032 5.83301 5.00008V3.33341ZM12.4997 3.33341H7.49967V4.16675H12.4997V3.33341Z" fill="#523424"/>
</svg>
