<svg width="20" height="20" viewBox="0 0 20 20" fill="none" xmlns="http://www.w3.org/2000/svg">
<path fill-rule="evenodd" clip-rule="evenodd" d="M4.16797 5.00008C4.16797 4.53984 4.54106 4.16675 5.0013 4.16675H15.0013C15.4615 4.16675 15.8346 4.53984 15.8346 5.00008V16.6667C15.8346 17.5872 15.0884 18.3334 14.168 18.3334H5.83464C4.91416 18.3334 4.16797 17.5872 4.16797 16.6667V5.00008ZM5.83464 5.83341V16.6667H14.168V5.83341H5.83464Z" fill="#353535"/>
<path fill-rule="evenodd" clip-rule="evenodd" d="M2.5 5C2.5 4.53976 2.8731 4.16667 3.33333 4.16667H16.6667C17.1269 4.16667 17.5 4.53976 17.5 5C17.5 5.46024 17.1269 5.83333 16.6667 5.83333H3.33333C2.8731 5.83333 2.5 5.46024 2.5 5Z" fill="#353535"/>
<path fill-rule="evenodd" clip-rule="evenodd" d="M5.83203 3.33341C5.83203 2.41294 6.57822 1.66675 7.4987 1.66675H12.4987C13.4192 1.66675 14.1654 2.41294 14.1654 3.33341V5.00008C14.1654 5.46032 13.7923 5.83341 13.332 5.83341H6.66536C6.20513 5.83341 5.83203 5.46032 5.83203 5.00008V3.33341ZM12.4987 3.33341H7.4987V4.16675H12.4987V3.33341Z" fill="#353535"/>
</svg>
